<?xml version="1.0" standalone="no"?>
<!DOCTYPE svg PUBLIC "-//W3C//DTD SVG 20010904//EN"
 "http://www.w3.org/TR/2001/REC-SVG-20010904/DTD/svg10.dtd">
<svg version="1.0" xmlns="http://www.w3.org/2000/svg"
 width="998.000000pt" height="998.000000pt" viewBox="0 0 998.000000 998.000000"
 preserveAspectRatio="xMidYMid meet">
<metadata>
Created by potrace 1.14, written by Peter Selinger 2001-2017
</metadata>
<g transform="translate(0.000000,998.000000) scale(0.100000,-0.100000)"
fill="#000000" stroke="none">
<path d="M4867 9600 c-14 -11 -29 -20 -35 -20 -5 0 -17 -9 -27 -20 -10 -11
-24 -20 -32 -20 -7 0 -13 -4 -13 -10 0 -5 -5 -10 -11 -10 -6 0 -29 -13 -52
-28 -23 -16 -69 -42 -102 -58 -70 -36 -108 -57 -115 -65 -3 -3 -22 -13 -42
-22 -23 -11 -51 -37 -73 -70 -19 -29 -51 -70 -71 -92 -20 -22 -54 -64 -76 -92
-22 -29 -43 -53 -47 -53 -4 0 -14 -12 -23 -27 -10 -16 -40 -53 -68 -83 -28
-30 -56 -63 -61 -73 -9 -16 -8 -17 8 -8 32 16 156 160 256 295 101 136 153
187 237 229 77 38 131 68 140 77 10 10 65 41 83 47 9 3 17 9 17 14 0 5 5 9 11
9 11 0 95 55 118 78 22 22 6 24 -22 2z"/>
<path d="M4915 9581 c-17 -16 -138 -95 -210 -135 -11 -7 -46 -28 -77 -49 -31
-20 -60 -37 -63 -37 -5 0 -69 -27 -120 -51 -11 -6 -34 -31 -50 -57 -17 -26
-56 -78 -88 -117 -214 -258 -200 -238 -285 -414 -22 -46 -104 -131 -125 -131
-16 0 -37 36 -37 63 0 7 18 32 40 57 50 56 51 69 3 33 -53 -40 -63 -54 -57
-84 4 -21 -1 -32 -23 -49 -24 -19 -37 -21 -88 -18 -65 5 -88 1 -80 -13 3 -4
-6 -22 -21 -39 -16 -17 -30 -26 -34 -20 -3 6 -27 -12 -53 -40 -27 -29 -55 -50
-68 -50 -11 0 -54 11 -94 25 l-74 25 -45 -47 c-74 -76 -135 -107 -123 -63 4
17 0 20 -31 20 -28 0 -33 3 -22 10 11 7 5 10 -23 10 -27 0 -36 4 -31 12 5 8 2
9 -10 5 -10 -4 -34 1 -54 12 -80 39 -127 66 -130 74 -2 4 -8 7 -13 7 -13 0
-79 44 -79 53 0 12 28 8 32 -4 2 -7 10 -10 17 -8 8 3 -23 29 -67 58 -45 29
-86 59 -93 67 -6 8 -18 14 -25 14 -15 0 -19 -30 -6 -45 5 -6 19 -44 31 -85 13
-41 27 -84 31 -95 5 -11 11 -29 14 -39 4 -10 9 -16 12 -13 8 8 -26 158 -42
184 -14 22 -19 53 -9 53 3 0 19 -12 35 -27 22 -19 27 -29 18 -34 -10 -6 -6
-21 14 -61 44 -87 88 -237 88 -301 0 -17 7 -51 15 -74 17 -50 9 -80 -31 -112
-34 -27 -58 -28 -51 -2 3 14 0 19 -12 19 -9 0 -51 11 -95 26 -43 15 -79 26
-80 24 -6 -7 -26 -138 -26 -164 0 -20 -11 -41 -36 -67 -53 -54 -104 -62 -104
-16 0 28 -10 24 -60 -24 -25 -23 -75 -67 -110 -97 -36 -30 -67 -57 -70 -60 -3
-3 -23 -20 -45 -39 -22 -18 -62 -55 -90 -80 -27 -26 -70 -62 -95 -81 -24 -19
-53 -43 -64 -52 -11 -10 -21 -16 -24 -14 -5 6 65 76 76 76 13 0 36 29 29 37
-6 5 -30 -13 -131 -99 -24 -21 -47 -38 -52 -38 -15 0 -214 -197 -214 -211 0
-7 35 21 78 62 93 90 165 150 171 144 2 -3 -3 -13 -12 -23 -9 -10 -21 -40 -26
-66 -10 -56 -27 -76 -100 -121 -55 -33 -191 -163 -191 -183 0 -5 29 1 64 14
62 22 85 22 67 0 -5 -6 -10 -14 -10 -18 -1 -5 -59 -86 -130 -180 -70 -95 -162
-225 -204 -288 -94 -142 -151 -210 -155 -186 -2 9 1 22 7 29 5 7 23 37 39 67
31 60 54 100 96 170 15 25 29 53 33 63 3 9 9 17 14 17 5 0 9 5 9 11 0 6 14 30
30 54 17 24 30 48 30 53 0 6 3 12 8 14 4 2 22 22 40 46 27 34 33 50 30 80 -3
30 -5 33 -12 17 -20 -52 -75 -150 -117 -212 -16 -23 -29 -45 -29 -48 0 -4 -8
-19 -19 -33 -20 -29 -50 -80 -91 -157 -14 -28 -33 -61 -42 -75 -32 -52 -88
-163 -84 -167 6 -6 61 23 113 58 23 16 45 29 48 29 4 0 19 9 35 20 50 36 370
200 495 255 22 9 61 28 87 41 57 29 58 29 58 6 0 -26 11 -34 28 -20 13 11 14
8 8 -20 -5 -21 -4 -32 3 -32 18 0 13 -24 -20 -97 -17 -37 -49 -113 -70 -168
-22 -55 -74 -170 -116 -255 -91 -186 -116 -255 -137 -380 -9 -52 -21 -120 -26
-150 -5 -30 -14 -111 -20 -180 -16 -189 -32 -313 -41 -330 -5 -10 -8 1 -9 32
0 26 -4 49 -9 52 -12 7 -23 -282 -12 -319 10 -35 6 -44 61 125 40 121 52 156
71 192 5 10 9 22 9 28 0 6 18 49 40 96 22 47 40 88 40 91 0 9 91 189 120 238
43 72 41 70 87 83 24 7 47 22 53 32 6 11 17 20 24 20 11 0 15 -48 20 -242 3
-134 7 -258 8 -277 3 -32 0 -35 -40 -48 -50 -17 -52 -28 -21 -148 11 -44 25
-98 30 -120 6 -22 14 -58 20 -80 53 -211 61 -263 48 -300 -10 -27 -10 -42 0
-72 19 -57 11 -83 -28 -104 -46 -24 -55 -43 -42 -81 6 -17 11 -46 11 -64 0
-18 4 -35 9 -39 5 -3 12 -20 16 -38 9 -43 26 -98 36 -119 5 -10 9 -27 9 -38 0
-11 4 -28 9 -38 18 -34 66 -198 63 -216 -1 -11 1 -22 6 -25 4 -3 16 -33 26
-66 10 -33 29 -74 42 -92 20 -27 32 -32 71 -35 45 -3 48 -5 76 -58 28 -50 107
-170 140 -212 21 -27 57 -35 124 -30 62 4 63 4 80 -28 29 -53 63 -90 83 -90
11 0 32 -19 52 -47 17 -27 38 -54 45 -61 7 -7 13 -17 13 -22 0 -5 8 -16 17
-26 10 -10 25 -27 33 -40 8 -12 48 -62 87 -110 40 -49 73 -97 73 -107 0 -11
-12 -31 -27 -46 -51 -49 -113 -158 -113 -199 0 -10 27 -57 60 -105 33 -47 60
-92 60 -99 0 -7 -10 -28 -23 -47 -56 -87 -70 -110 -97 -166 -17 -33 -30 -68
-30 -78 0 -33 29 -83 96 -164 36 -43 70 -85 77 -93 7 -8 38 -46 70 -83 31 -38
57 -72 57 -76 0 -15 -24 -27 -125 -59 -55 -18 -111 -38 -125 -44 -14 -6 -34
-14 -45 -18 -11 -5 -63 -25 -115 -45 -172 -67 -366 -158 -399 -188 -42 -39
-94 -125 -187 -307 -13 -25 -52 -85 -88 -135 -36 -49 -73 -106 -84 -125 -28
-53 -46 -84 -52 -90 -12 -12 -170 -323 -170 -334 0 -7 -36 -91 -51 -118 -13
-25 -12 -28 11 -28 11 0 20 7 20 15 0 45 283 595 306 595 6 0 -9 -34 -26 -60
-23 -35 -140 -281 -140 -295 0 -3 -9 -24 -20 -48 -10 -23 -30 -71 -44 -107
-13 -36 -27 -73 -31 -82 -7 -17 71 -18 1559 -18 l1566 0 0 129 c0 71 4 141 10
155 18 48 54 61 171 61 152 0 149 4 149 -192 l0 -153 1729 0 1729 0 -13 28
c-68 142 -150 308 -154 312 -8 7 -31 48 -31 55 0 13 16 2 26 -18 21 -42 59
-112 64 -117 10 -10 41 -65 47 -82 4 -15 23 -26 23 -15 0 5 -39 89 -51 111
-15 26 -45 80 -69 121 -11 19 -29 51 -40 70 -11 19 -29 51 -40 71 -11 19 -49
76 -83 126 -80 116 -123 184 -144 228 -9 19 -28 53 -43 75 -14 22 -31 52 -39
66 -52 105 -117 150 -336 239 -11 4 -36 15 -55 23 -19 9 -55 23 -80 32 -25 9
-54 20 -65 25 -11 4 -36 13 -55 20 -19 7 -44 16 -55 20 -11 5 -49 18 -85 30
-36 11 -73 25 -82 30 -10 6 -27 10 -37 10 -11 0 -23 5 -26 10 -3 6 -15 10 -25
10 -11 0 -24 8 -29 19 -8 15 1 33 50 97 32 43 66 86 73 95 43 51 116 171 116
190 0 42 -42 143 -101 241 -70 116 -75 157 -33 238 14 27 31 71 39 98 12 48
12 50 -15 79 -27 29 -123 75 -184 88 -54 11 -167 156 -216 275 -17 40 -30 78
-30 84 -1 16 -32 51 -57 65 -12 6 -55 11 -95 12 -79 0 -164 12 -175 23 -8 8
-7 10 60 95 26 34 47 64 47 67 0 2 9 14 20 26 19 20 21 20 62 4 24 -9 58 -16
75 -16 18 0 42 -4 55 -9 13 -5 55 -15 94 -21 68 -12 74 -12 111 10 43 24 85
24 188 0 28 -6 84 -14 126 -17 l75 -5 30 38 c16 21 61 102 99 179 l70 140 62
5 c34 3 63 7 65 10 2 3 10 19 17 35 7 17 17 38 22 47 5 10 9 27 9 37 0 11 5
23 10 26 6 3 10 17 10 31 0 13 -4 24 -10 24 -12 0 -13 47 -1 86 5 16 14 56 21
89 7 33 16 71 20 85 7 24 22 90 36 159 4 24 9 30 15 20 6 -9 9 9 9 48 0 34 4
65 10 68 14 9 12 89 -2 103 -7 7 -22 12 -34 12 -32 0 -41 18 -48 90 -3 36 -6
72 -7 80 -1 8 5 40 13 70 8 30 21 82 27 115 7 33 16 76 21 95 5 19 14 69 20
110 6 41 15 97 20 123 18 87 14 106 -22 121 -18 8 -41 17 -52 20 -16 6 -18 13
-11 64 5 31 9 194 10 361 2 301 3 305 24 312 13 6 21 17 21 32 0 21 -30 147
-60 252 -5 17 -13 46 -18 65 -5 19 -21 69 -35 110 -37 111 -42 139 -23 146 8
3 28 -1 43 -9 45 -23 135 -72 176 -95 20 -12 53 -31 73 -42 37 -21 255 -167
329 -221 22 -15 43 -28 48 -29 11 0 9 48 -3 55 -5 3 -10 17 -10 30 0 13 -4 27
-10 30 -5 3 -10 15 -10 26 0 10 -4 27 -9 37 -5 9 -13 28 -19 42 -22 57 -76
160 -91 177 -9 10 -31 38 -48 63 -41 59 -178 222 -247 294 -33 35 -36 37 -21
11 10 -16 30 -41 45 -55 14 -14 37 -41 50 -60 13 -19 31 -42 40 -50 8 -8 35
-42 60 -75 25 -33 64 -84 88 -114 39 -49 92 -148 92 -171 0 -10 5 -23 28 -67
19 -36 13 -50 -8 -23 -11 14 -20 28 -20 32 0 15 -104 185 -162 266 -75 105
-117 156 -237 286 -50 55 -91 103 -91 109 0 5 -16 32 -36 59 -21 27 -30 48
-23 46 8 -2 15 0 16 4 3 14 -19 68 -27 68 -5 0 -8 12 -7 27 2 23 -5 30 -58 56
-33 16 -69 33 -80 37 -11 5 -41 17 -67 29 -26 12 -51 21 -55 21 -5 0 -42 14
-85 31 -69 28 -78 34 -100 77 -22 43 -31 50 -103 80 -81 34 -93 44 -120 100
-19 38 -79 101 -182 191 -45 39 -73 71 -73 83 0 20 5 20 223 14 207 -5 291
-12 427 -35 95 -16 223 -32 227 -27 8 8 -52 56 -67 54 -24 -3 -62 12 -110 45
-60 41 -230 188 -230 199 0 4 -11 6 -23 3 -17 -5 -33 1 -55 20 -46 38 -43 59
7 50 24 -4 42 -2 46 4 8 14 66 14 136 1 77 -15 86 1 28 53 -57 53 -82 72 -110
87 -19 11 -21 10 -16 -4 9 -22 -9 -20 -52 6 -176 110 -209 122 -356 131 -299
18 -361 23 -389 35 -16 7 -36 10 -46 7 -9 -3 -37 3 -62 14 -85 36 -117 36
-176 -3 -29 -19 -59 -33 -67 -30 -25 10 -49 -13 -65 -63 -19 -55 -43 -65 -80
-35 -22 18 -23 21 -10 53 18 43 88 118 165 178 33 25 73 58 89 73 l29 28 317
0 c269 0 319 2 330 15 16 20 6 45 -19 45 -11 0 -23 5 -26 10 -3 6 -16 10 -29
10 -23 0 -285 81 -346 107 -19 8 -44 19 -55 23 -87 36 -103 44 -99 51 2 5 -1
18 -8 29 -11 17 -11 22 2 30 10 7 -13 8 -70 4 -83 -6 -172 -21 -137 -23 21 -1
23 -21 2 -21 -8 0 -24 5 -34 12 -15 9 -30 7 -77 -12 -33 -13 -63 -26 -69 -30
-22 -16 -75 -23 -160 -21 -83 2 -88 1 -70 -13 28 -22 8 -20 -96 9 -49 14 -101
23 -117 20 -25 -5 -25 -5 -4 4 42 19 26 33 -30 27 -133 -16 -184 -17 -220 -5
-33 11 -40 10 -56 -4 -25 -25 -120 -87 -132 -87 -5 0 -10 -4 -10 -10 0 -5 -8
-10 -17 -10 -14 0 -12 4 7 17 14 9 28 22 33 29 4 7 14 20 23 29 34 34 -7 10
-172 -100 -96 -63 -176 -115 -180 -115 -3 0 -19 -9 -35 -21 -24 -17 -34 -19
-61 -10 -83 25 -112 30 -127 21 -13 -8 -12 -9 7 -10 12 0 22 -4 22 -10 0 -13
-25 -13 -48 -1 -9 6 -38 13 -64 16 l-48 6 0 45 c0 46 32 126 94 229 16 28 34
59 40 70 56 98 79 135 91 145 8 7 15 17 15 22 0 5 31 55 68 111 38 56 72 108
76 115 11 19 -7 14 -29 -7z m501 -596 c24 -24 25 -28 11 -48 -27 -41 -100 -35
-112 10 -5 21 -2 32 15 45 31 25 56 22 86 -7z m852 -101 c28 -19 28 -40 1 -55
-46 -24 -92 26 -51 57 22 17 23 17 50 -2z m-3528 -294 c0 -5 -4 -10 -10 -10
-5 0 -10 5 -10 10 0 6 5 10 10 10 6 0 10 -4 10 -10z m4180 -20 c-20 -13 -53
-13 -45 0 3 6 18 10 33 10 21 0 24 -2 12 -10z m-875 -521 c74 -20 213 -91 223
-114 13 -29 -3 -55 -34 -55 -17 0 -27 -8 -34 -24 -23 -62 -196 -54 -267 14
-26 23 -28 38 -13 92 12 40 55 98 73 98 7 0 30 -5 52 -11z m-1134 -162 c28
-21 40 -55 33 -95 -4 -25 -2 -42 5 -46 19 -12 12 -52 -14 -80 -30 -32 -76 -34
-122 -6 -41 25 -52 63 -29 105 11 20 15 41 11 58 -13 51 71 98 116 64z m837
-185 c42 -30 59 -75 41 -108 -35 -66 -142 -72 -206 -12 -38 35 -25 99 25 131
35 23 100 17 140 -11z m96 -107 c-7 -18 12 -20 20 -2 5 10 7 10 12 0 3 -7 14
-13 25 -13 20 0 50 -51 63 -105 4 -16 13 -37 20 -45 7 -8 25 -56 40 -106 23
-73 26 -94 17 -112 -10 -19 -14 -20 -39 -9 -60 26 -237 154 -236 171 1 9 -4
16 -12 16 -8 0 -14 -5 -14 -10 0 -6 -11 -3 -25 6 -14 9 -25 22 -25 29 0 8 -12
23 -27 36 -18 14 -23 23 -15 26 19 7 14 23 -7 23 -10 0 -24 6 -30 14 -11 13
-4 14 43 9 64 -7 107 9 149 56 29 33 50 41 41 16z m518 -67 c85 -81 103 -117
83 -165 -15 -35 -29 -45 -101 -69 -95 -32 -128 -14 -118 67 4 36 0 60 -20 109
-41 102 -33 130 39 130 37 0 48 -7 117 -72z m-4142 22 c0 -12 -28 -25 -36 -17
-9 9 6 27 22 27 8 0 14 -5 14 -10z m-410 -134 c0 -3 -4 -8 -10 -11 -5 -3 -10
-1 -10 4 0 6 5 11 10 11 6 0 10 -2 10 -4z m2887 -248 c-6 -69 -12 -79 -32 -52
-21 28 -19 100 2 113 29 16 36 1 30 -61z m2003 17 c0 -20 -5 -25 -24 -25 -30
0 -42 16 -26 35 21 25 50 19 50 -10z m-490 -5 c24 -24 25 -34 3 -55 -12 -12
-25 -15 -52 -10 -20 4 -39 9 -43 11 -13 8 -9 37 9 56 21 24 58 23 83 -2z m565
-15 c0 -13 -8 -21 -22 -23 -17 -3 -23 2 -23 16 0 10 3 22 7 26 13 13 38 1 38
-19z m-3751 -1 c8 -22 -11 -54 -33 -54 -29 0 -45 25 -31 49 13 25 55 28 64 5z
m3174 -86 c16 -16 -3 -48 -29 -48 -22 0 -34 22 -25 45 6 18 37 20 54 3z
m-1090 -21 c3 -12 -4 -17 -22 -17 -27 0 -37 24 -13 33 19 8 32 2 35 -16z
m1692 -129 c25 -28 25 -30 -6 -67 -46 -55 -118 -36 -112 29 5 57 78 80 118 38z
m-2435 -253 c20 -66 57 -180 81 -252 l44 -133 -11 -116 c-6 -64 -9 -169 -6
-233 5 -126 18 -168 96 -314 27 -50 45 -103 60 -175 23 -115 39 -157 61 -157
42 0 77 174 105 530 23 284 45 390 60 299 20 -117 66 -254 91 -275 43 -35 91
-129 103 -201 46 -268 82 -391 107 -365 19 19 38 131 70 414 l5 41 85 -86 c76
-77 86 -84 100 -70 14 13 13 26 -9 119 -33 142 -91 360 -132 500 -28 94 -36
139 -41 245 l-7 130 48 112 c26 62 53 112 59 112 18 0 130 -96 218 -186 43
-44 118 -133 168 -199 87 -116 90 -121 90 -173 0 -64 22 -177 50 -252 11 -30
20 -59 20 -64 0 -5 -35 -6 -80 -3 -92 6 -200 -2 -200 -14 0 -5 33 -10 73 -10
137 -3 219 -13 228 -29 17 -31 179 -385 179 -391 0 -3 -48 -9 -107 -13 -119
-7 -464 -32 -585 -42 -61 -5 -79 -11 -83 -24 -5 -15 61 -222 84 -260 19 -33
23 -98 8 -127 -46 -89 -76 -233 -53 -252 10 -9 16 -9 21 -1 8 12 135 106 174
128 21 12 22 12 15 -10 -4 -13 -22 -51 -40 -86 -60 -113 -59 -113 147 41 57
43 187 103 260 120 98 23 130 26 332 28 103 1 187 4 187 8 0 33 -146 53 -353
49 -92 -1 -167 0 -167 3 0 6 100 34 196 53 133 28 111 49 -85 80 -95 16 -115
22 -90 30 108 31 215 56 245 56 15 0 32 -16 55 -52 45 -71 86 -116 120 -134
31 -16 85 -19 93 -5 7 10 -8 89 -31 170 -17 61 -11 70 42 71 17 0 40 3 52 6
18 5 30 -7 77 -78 103 -155 153 -180 141 -71 -3 32 -11 78 -17 102 -8 31 -8
46 -1 48 5 2 19 10 29 18 18 14 18 16 -8 36 -26 19 -27 22 -14 47 8 15 22 79
31 142 27 188 34 201 67 139 16 -29 18 -61 18 -240 0 -226 8 -273 80 -453 29
-75 30 -80 30 -254 0 -167 -9 -268 -30 -337 -30 -97 -101 -434 -107 -500 -5
-70 -17 -88 -37 -60 -8 11 -12 23 -10 27 3 4 -5 12 -16 18 -11 6 -20 20 -20
30 0 11 -4 20 -10 20 -5 0 -10 4 -10 9 0 5 -23 49 -51 98 -77 132 -76 126 -29
197 22 34 43 76 46 94 6 28 4 32 -15 32 -11 0 -21 -4 -21 -10 0 -16 -62 -81
-115 -120 -148 -109 -271 -150 -449 -150 -62 0 -126 4 -142 9 -16 5 -49 15
-74 22 -25 7 -80 30 -122 51 -43 21 -78 35 -78 31 1 -12 80 -68 138 -97 103
-52 321 -81 425 -57 l38 9 24 -51 c14 -28 25 -61 25 -74 0 -14 4 -22 9 -19 5
3 18 -22 30 -57 13 -34 34 -87 48 -117 15 -30 32 -71 39 -90 18 -53 48 -48 54
9 6 50 25 65 39 28 15 -38 39 -41 59 -7 19 34 30 37 46 14 16 -21 46 -7 46 22
0 33 16 30 35 -7 14 -26 21 -30 41 -25 l25 7 -7 -148 c-4 -81 -13 -162 -20
-179 -47 -113 -320 -370 -575 -541 -74 -50 -375 -233 -382 -233 -3 0 -49 -25
-103 -56 -128 -73 -326 -168 -403 -194 -82 -27 -147 -25 -282 9 -101 26 -357
109 -494 161 -27 10 -86 32 -130 48 -218 82 -380 163 -538 267 -133 87 -216
160 -295 258 -71 89 -87 114 -130 202 -54 111 -66 173 -51 256 7 38 16 69 21
69 5 0 7 8 4 18 -7 20 33 62 59 62 8 0 15 5 15 11 0 7 9 20 20 29 16 13 19 25
14 44 -3 14 -8 26 -10 26 -7 0 -75 -38 -96 -52 -14 -10 -22 -8 -43 12 -14 13
-25 27 -25 31 0 4 14 22 30 39 56 59 18 94 -43 41 -39 -35 -52 -38 -61 -14 -7
16 -128 604 -148 718 -10 55 -9 70 15 155 14 52 29 112 33 133 3 20 7 37 9 37
2 0 17 -13 35 -30 35 -33 55 -38 63 -16 7 18 -7 114 -32 226 -11 46 -18 86
-16 89 7 6 326 3 425 -4 120 -9 271 -24 300 -32 22 -5 -97 -41 -262 -79 -16
-4 -28 -12 -28 -20 0 -13 23 -19 117 -28 50 -5 93 -23 93 -38 0 -5 -22 -8 -50
-8 -59 0 -197 -18 -225 -30 -11 -4 -36 -14 -55 -21 -57 -20 -92 -49 -87 -70 4
-14 -4 -21 -31 -30 -51 -17 -84 -38 -158 -103 -70 -62 -79 -89 -43 -122 24
-22 53 -76 99 -187 24 -58 37 -77 49 -75 13 3 15 14 13 53 -2 27 -8 55 -14 62
-14 17 -2 58 23 82 11 10 19 27 17 37 -2 16 2 18 27 16 l30 -4 -22 22 c-13 11
-23 22 -23 23 0 2 20 2 44 2 37 -2 46 2 57 22 17 32 41 31 33 -2 -8 -31 15
-34 34 -5 18 30 46 26 40 -5 -6 -28 -4 -29 23 -15 25 14 44 3 28 -16 -9 -11
-8 -18 2 -30 8 -10 19 -56 25 -103 6 -47 19 -104 29 -126 105 -229 352 -294
524 -139 53 48 111 150 111 196 0 14 5 39 11 57 17 48 51 42 92 -15 71 -102
28 49 -48 166 -68 107 -164 172 -318 219 -114 34 -167 43 -305 51 -125 6 -130
7 -52 10 184 5 298 -7 396 -44 113 -41 145 -56 204 -94 35 -23 68 -42 72 -42
11 0 -6 31 -49 92 -19 26 -31 48 -26 48 14 0 64 -34 138 -94 80 -64 105 -71
105 -27 0 48 -27 161 -60 253 -30 83 -31 87 -15 124 22 53 65 227 65 263 0 35
-25 46 -88 39 -20 -3 -102 -1 -182 3 -148 8 -526 -4 -680 -21 -46 -5 -88 -6
-92 -2 -4 4 -8 94 -9 198 -1 185 0 192 22 227 13 20 27 37 30 37 3 0 11 -23
17 -52 11 -43 10 -54 -3 -68 -20 -22 -19 -30 4 -30 14 0 23 -16 39 -72 12 -40
25 -93 29 -118 13 -67 34 -58 49 20 17 81 53 190 72 212 7 9 37 22 65 28 29 7
66 16 82 20 39 11 113 26 200 40 84 14 118 27 110 40 -8 13 -47 13 -94 0 -20
-5 -76 -19 -126 -30 -49 -12 -98 -25 -107 -31 -10 -5 -31 -9 -47 -9 -17 0 -33
-4 -36 -10 -7 -11 -45 -14 -45 -4 0 3 14 54 31 113 17 58 55 204 84 323 l52
217 56 74 c30 41 93 113 139 162 45 48 87 94 92 102 13 24 69 44 82 30 6 -7
28 -66 49 -132z m3094 -119 c28 -64 89 -154 117 -173 25 -16 28 -16 75 10 l48
28 17 -25 c9 -14 20 -40 24 -58 5 -18 16 -60 25 -93 17 -62 30 -114 45 -175
10 -39 24 -131 41 -267 16 -124 0 -462 -23 -490 -6 -7 -26 -13 -44 -13 -42 0
-64 -37 -64 -107 0 -61 -21 -153 -35 -153 -6 0 -21 13 -32 28 -11 16 -38 33
-59 39 -78 23 -220 53 -252 53 -57 0 -74 15 -66 58 4 20 10 42 14 47 4 6 10
24 13 40 9 54 42 173 49 180 3 4 22 1 42 -6 56 -20 68 -3 63 90 -5 84 -14 130
-47 241 -37 125 -37 136 -1 180 25 31 31 48 31 86 0 26 -4 61 -9 78 -5 17 -20
86 -32 153 -21 112 -21 130 -10 205 17 111 37 123 70 44z m-2424 -66 c10 -32
-12 -62 -43 -58 -21 2 -28 9 -30 32 -4 31 10 46 45 46 13 0 24 -8 28 -20z
m-2755 -460 c0 -28 7 -65 16 -82 13 -25 15 -50 9 -138 -9 -137 -25 -166 -25
-46 0 160 -15 81 -20 -109 -5 -163 2 -185 29 -100 26 81 99 231 138 283 28 37
47 32 56 -16 3 -15 11 -47 17 -72 7 -25 14 -81 17 -125 3 -44 9 -85 14 -90 11
-14 28 -174 26 -245 -1 -30 2 -57 7 -60 5 -3 17 20 26 50 21 67 41 75 59 23
16 -44 44 -109 73 -170 29 -59 16 -73 -65 -73 -33 0 -74 -4 -91 -9 -17 -6 -58
-15 -91 -21 -112 -22 -154 -48 -155 -96 0 -11 -8 -28 -19 -38 -21 -19 -34 -9
-44 34 -14 62 -40 169 -51 205 -11 36 -16 40 -49 43 -48 4 -54 26 -62 232 -7
195 15 549 39 600 9 20 94 68 124 69 20 1 22 -4 22 -49z m1058 -418 c45 -86
89 -238 76 -259 -5 -7 -52 -40 -104 -73 -85 -53 -96 -57 -107 -43 -31 40 -3
263 45 366 18 38 32 73 32 78 0 27 22 1 58 -69z m162 -962 c0 -5 -4 -10 -10
-10 -5 0 -10 5 -10 10 0 6 5 10 10 10 6 0 10 -4 10 -10z m190 0 c0 -5 -2 -10
-4 -10 -3 0 -8 5 -11 10 -3 6 -1 10 4 10 6 0 11 -4 11 -10z m184 -21 c19 -15
26 -29 26 -56 0 -48 -24 -73 -69 -73 -84 1 -116 87 -49 134 30 22 60 20 92 -5z
m3919 -351 c23 -27 22 -59 -4 -92 -49 -63 -144 -3 -118 73 19 54 84 64 122 19z
m-5480 -140 c21 -25 22 -81 2 -102 -40 -39 -98 -31 -121 18 -14 29 -15 37 -3
62 26 54 85 65 122 22z m4237 11 c9 -15 8 -24 -2 -37 -11 -14 -11 -15 6 -9 15
6 17 4 12 -15 -3 -13 -6 -27 -6 -33 0 -11 -30 44 -33 60 -1 6 -6 13 -11 17 -6
4 -4 13 3 22 17 20 18 20 31 -5z m-110 -49 c0 -5 -4 -10 -9 -10 -6 0 -13 5
-16 10 -3 6 1 10 9 10 9 0 16 -4 16 -10z m-63 -47 c11 -21 31 -58 45 -83 30
-52 46 -124 27 -118 -16 5 -79 126 -79 151 0 6 -10 21 -21 33 -12 13 -19 30
-16 38 10 25 24 19 44 -21z m230 -66 l-4 -22 -8 23 c-4 12 -11 22 -16 22 -11
0 -12 34 -2 44 11 11 35 -43 30 -67z m-57 -63 c0 -8 -4 -12 -10 -9 -5 3 -10
10 -10 16 0 5 5 9 10 9 6 0 10 -7 10 -16z m-63 -136 c-3 -8 -6 -5 -6 6 -1 11
2 17 5 13 3 -3 4 -12 1 -19z m20 -50 c-3 -8 -6 -5 -6 6 -1 11 2 17 5 13 3 -3
4 -12 1 -19z m-3157 -490 c38 -72 105 -174 120 -183 25 -16 12 -42 -107 -212
-48 -69 -55 -73 -126 -73 -38 0 -60 -6 -87 -25 -20 -14 -43 -23 -51 -20 -8 3
-28 25 -46 48 -17 23 -49 65 -71 93 -51 66 -136 193 -147 219 -4 11 -11 37
-15 58 -11 55 8 71 74 62 93 -13 157 -10 286 17 55 11 100 40 100 65 0 7 8 13
18 13 12 0 29 -21 52 -62z m2519 -1315 c7 -54 21 -134 33 -178 11 -44 20 -88
20 -98 -1 -27 -79 -175 -121 -229 -31 -41 -43 -48 -91 -59 -30 -7 -75 -13 -99
-13 l-44 -1 -12 50 c-18 74 -40 128 -53 133 -18 6 -72 -127 -72 -179 0 -13 -4
-30 -8 -37 -19 -29 -293 -44 -374 -20 -24 7 -66 37 -110 77 -69 63 -70 65 -64
104 8 49 55 147 71 147 7 0 38 -9 71 -21 89 -31 159 -23 266 28 135 64 326
196 488 336 41 35 78 63 81 61 4 -2 12 -48 18 -101z m2152 -779 c68 -32 80
-42 116 -97 22 -34 54 -87 70 -117 17 -30 40 -72 53 -93 12 -21 19 -41 16 -45
-4 -3 -10 -1 -14 5 -4 6 -88 95 -187 198 -99 103 -182 191 -183 196 -5 11 31
-2 129 -47z m-5601 -52 c0 -30 -36 -117 -67 -163 -16 -24 -42 -66 -57 -93 -16
-27 -42 -63 -58 -80 l-30 -31 7 35 c4 19 34 87 67 150 90 171 138 235 138 182z
m2718 -270 l3 -73 -27 3 c-22 2 -29 11 -40 48 -19 63 -17 79 9 90 45 18 52 10
55 -68z m80 7 c2 -24 -3 -43 -17 -60 l-20 -24 -1 63 c0 55 2 63 18 60 12 -2
18 -14 20 -39z m-188 5 c17 -44 13 -84 -9 -84 -38 0 -62 61 -35 91 23 25 33
24 44 -7z m161 -135 c41 -16 63 -75 35 -98 -11 -9 -15 -6 -19 17 -7 34 -50 52
-129 52 -49 0 -59 -4 -77 -26 -12 -15 -17 -32 -14 -42 6 -15 5 -15 -10 -3 -9
7 -17 21 -17 31 0 27 38 69 73 79 35 11 118 5 158 -10z m-29 -104 c4 -22 4
-75 1 -118 l-6 -78 -46 3 -46 3 -3 104 c-1 58 0 111 3 118 3 10 18 13 47 11
41 -3 43 -4 50 -43z m3353 -145 c3 -5 1 -10 -4 -10 -6 0 -11 5 -11 10 0 6 2
10 4 10 3 0 8 -4 11 -10z m25 -41 c0 -6 -4 -7 -10 -4 -5 3 -10 11 -10 16 0 6
5 7 10 4 6 -3 10 -11 10 -16z"/>
<path d="M5720 7410 c0 -5 5 -10 10 -10 6 0 10 5 10 10 0 6 -4 10 -10 10 -5 0
-10 -4 -10 -10z"/>
<path d="M5970 7250 c0 -5 9 -10 20 -10 11 0 20 5 20 10 0 6 -9 10 -20 10 -11
0 -20 -4 -20 -10z"/>
<path d="M6075 4959 c-133 -17 -335 -77 -335 -100 0 -5 -6 -9 -14 -9 -8 0 -43
-28 -79 -62 -80 -78 -127 -166 -127 -235 1 -44 2 -46 15 -28 8 11 19 25 25 32
5 7 10 16 10 21 0 17 32 37 61 38 31 2 29 6 44 -106 19 -141 136 -256 301
-295 143 -35 310 52 376 195 42 91 49 125 47 215 -2 81 9 122 25 96 11 -16 63
-13 70 4 8 21 38 19 57 -4 12 -13 14 -23 6 -37 -10 -19 -10 -19 11 0 19 17 22
17 37 2 9 -8 24 -20 33 -26 15 -8 15 -11 2 -21 -12 -9 -11 -10 8 -6 21 5 22 2
22 -64 0 -61 2 -69 19 -69 20 0 33 29 46 105 4 22 20 59 36 83 16 24 29 49 29
57 0 33 -188 151 -303 189 -103 34 -269 44 -422 25z m-187 -225 c42 -47 20
-114 -44 -130 -53 -13 -108 57 -88 113 19 56 89 65 132 17z m456 -267 c-19
-63 -77 -147 -100 -147 -19 0 -14 20 32 118 31 67 35 72 54 62 16 -8 19 -17
14 -33z"/>
<path d="M6505 4700 c-3 -5 -1 -10 4 -10 6 0 11 5 11 10 0 6 -2 10 -4 10 -3 0
-8 -4 -11 -10z"/>
<path d="M3341 4264 c-24 -31 -19 -47 28 -97 119 -128 300 -197 514 -197 124
0 173 8 277 46 113 41 227 120 288 197 22 28 -1 18 -43 -18 -131 -115 -299
-175 -490 -175 -98 0 -125 4 -203 29 -126 42 -253 120 -303 188 -22 29 -41 53
-44 53 -2 0 -13 -12 -24 -26z"/>
<path d="M4795 3619 c-29 -27 -45 -50 -45 -65 0 -37 63 -98 131 -129 54 -24
71 -27 133 -23 93 6 182 45 236 104 22 24 40 52 40 63 0 23 -64 81 -89 81 -10
0 -38 -7 -62 -16 -62 -22 -153 -20 -219 5 -30 12 -61 21 -68 21 -7 0 -33 -19
-57 -41z"/>
<path d="M4970 3018 c-140 -13 -342 -60 -372 -86 -48 -40 7 -49 107 -18 179
55 194 58 396 63 170 5 219 2 353 -17 86 -13 160 -20 163 -16 4 4 3 14 -3 23
-28 44 -407 74 -644 51z"/>
<path d="M4977 2784 c-36 -19 -32 -41 13 -66 25 -14 49 -18 86 -15 52 3 145
43 152 64 9 30 -201 44 -251 17z"/>
<path d="M6630 9070 c0 -5 7 -10 16 -10 8 0 12 5 9 10 -3 6 -10 10 -16 10 -5
0 -9 -4 -9 -10z"/>
<path d="M6685 9050 c3 -5 15 -10 25 -10 10 0 22 -4 25 -10 3 -5 15 -10 26
-10 10 0 27 -4 37 -9 9 -6 49 -19 87 -31 67 -20 100 -32 137 -51 23 -12 51
-12 44 0 -8 12 -92 51 -111 51 -9 0 -35 9 -57 20 -23 11 -49 20 -57 20 -9 0
-40 9 -69 20 -56 22 -97 26 -87 10z"/>
<path d="M7275 8556 c11 -8 27 -16 35 -16 20 0 1 16 -30 25 -24 7 -24 7 -5 -9z"/>
<path d="M7330 8531 c0 -6 6 -11 14 -11 8 0 16 -4 18 -8 5 -13 69 -54 75 -49
8 9 -16 29 -64 55 -24 13 -43 18 -43 13z"/>
<path d="M7580 8151 c0 -5 7 -12 16 -15 14 -5 15 -4 4 9 -14 17 -20 19 -20 6z"/>
<path d="M2472 8103 c-12 -15 -22 -31 -22 -35 0 -6 -62 -83 -141 -176 -11 -13
-19 -26 -16 -28 8 -8 105 103 156 179 52 77 65 113 23 60z"/>
<path d="M7650 8094 c0 -9 32 -33 44 -34 5 0 1 9 -9 20 -18 20 -35 26 -35 14z"/>
<path d="M7730 8030 c0 -5 5 -10 11 -10 5 0 7 5 4 10 -3 6 -8 10 -11 10 -2 0
-4 -4 -4 -10z"/>
<path d="M2127 7713 c-20 -20 -37 -41 -37 -46 0 -6 8 -1 18 9 9 11 30 32 45
47 15 15 24 27 19 27 -5 0 -25 -16 -45 -37z"/>
<path d="M1985 7590 c-16 -17 -23 -30 -17 -30 7 0 12 3 12 8 0 4 12 15 26 23
15 9 22 19 17 22 -6 4 -23 -7 -38 -23z"/>
<path d="M8000 7093 c0 -5 12 -20 26 -34 24 -21 26 -22 16 -3 -13 25 -42 50
-42 37z"/>
<path d="M1824 6588 c-5 -7 -10 -24 -11 -38 -1 -14 -4 -32 -5 -40 -2 -8 1 -17
7 -20 14 -7 56 61 53 84 -3 24 -32 33 -44 14z"/>
<path d="M1770 6537 c-31 -27 -65 -67 -58 -67 6 0 36 28 67 63 30 33 25 35 -9
4z"/>
<path d="M1692 6350 c0 -14 2 -19 5 -12 2 6 2 18 0 25 -3 6 -5 1 -5 -13z"/>
<path d="M1700 6306 c0 -8 5 -18 10 -21 6 -3 10 1 10 9 0 8 -4 18 -10 21 -5 3
-10 -1 -10 -9z"/>
<path d="M1658 6125 c-10 -13 -18 -26 -18 -29 0 -2 -21 -40 -48 -83 -55 -91
-75 -133 -63 -133 5 0 11 8 14 18 4 9 20 40 37 67 17 28 33 58 37 68 3 9 8 17
12 17 3 0 12 15 20 33 8 17 19 35 24 38 5 4 8 11 6 17 -2 6 -12 0 -21 -13z"/>
<path d="M1508 5790 c-4 -8 -9 -37 -13 -65 -3 -27 -10 -86 -16 -130 -20 -163
-22 -190 -11 -180 6 6 13 37 16 70 3 33 10 89 16 125 18 109 22 146 18 171 -3
17 -6 20 -10 9z"/>
<path d="M1451 5254 c0 -11 3 -14 6 -6 3 7 2 16 -1 19 -3 4 -6 -2 -5 -13z"/>
<path d="M8021 4184 c0 -11 3 -14 6 -6 3 7 2 16 -1 19 -3 4 -6 -2 -5 -13z"/>
<path d="M8000 4083 c0 -21 3 -24 9 -14 5 8 7 20 4 28 -8 21 -13 15 -13 -14z"/>
<path d="M7980 3989 c0 -11 5 -17 10 -14 6 3 10 13 10 21 0 8 -4 14 -10 14 -5
0 -10 -9 -10 -21z"/>
<path d="M7962 3905 c0 -16 2 -22 5 -12 2 9 2 23 0 30 -3 6 -5 -1 -5 -18z"/>
<path d="M7940 3823 c0 -22 2 -25 10 -13 13 20 13 40 0 40 -5 0 -10 -12 -10
-27z"/>
<path d="M8700 138 c0 -10 5 -18 10 -18 6 0 10 -9 10 -20 0 -11 5 -20 10 -20
16 0 11 23 -10 50 -16 20 -20 22 -20 8z"/>
</g>
</svg>
